<svg width="27" height="26" viewBox="0 0 27 26" fill="none" xmlns="http://www.w3.org/2000/svg">
<g clip-path="url(#clip0_2003_90)">
<path d="M19.7361 2.07678C18.5162 2.09576 17.3229 2.43629 16.2768 3.06399C15.2306 3.6917 14.3686 4.58434 13.7778 5.65178C13.187 4.58434 12.325 3.6917 11.2788 3.06399C10.2326 2.43629 9.03933 2.09576 7.81944 2.07678C5.87479 2.16127 4.04262 3.01197 2.7232 4.44303C1.40378 5.87409 0.704374 7.76918 0.77777 9.71428C0.77777 14.6402 5.9626 20.02 10.3111 23.6676C11.282 24.4835 12.5096 24.9308 13.7778 24.9308C15.046 24.9308 16.2735 24.4835 17.2444 23.6676C21.5929 20.02 26.7778 14.6402 26.7778 9.71428C26.8512 7.76918 26.1518 5.87409 24.8323 4.44303C23.5129 3.01197 21.6808 2.16127 19.7361 2.07678Z" fill="#FD7D60"/>
</g>
<defs>
<clipPath id="clip0_2003_90">
<rect width="26" height="26" fill="white" transform="translate(0.777771)"/>
</clipPath>
</defs>
</svg>
