<svg width="22" height="36" viewBox="0 0 22 36" fill="none" xmlns="http://www.w3.org/2000/svg">
<g clip-path="url(#clip0_2003_78)">
<path fill-rule="evenodd" clip-rule="evenodd" d="M10.4718 16.138C10.5465 15.7571 10.466 16.0775 10.6057 15.9244L10.7666 16.0493C11.2399 16.013 12.1252 15.8111 12.5625 15.6957C14.1765 15.2702 15.5409 14.5026 16.4582 13.1085C17.8927 10.9285 17.9661 7.06414 16.4367 4.55847C14.5844 1.52396 13.6107 8.71539 11.8497 7.99065C11.6787 7.92028 11.2888 7.64907 11.1587 7.51751C10.6196 6.97245 9.81526 5.59138 9.1999 5.12643C6.74872 3.27435 7.59188 10.1444 5.36327 8.86582C4.25714 8.23124 2.63159 5.49631 1.64528 6.66841C0.719925 7.76805 1.15161 15.7713 6.44047 16.3024C8.59771 16.519 9.27824 16.138 10.4719 16.138H10.4718Z" fill="#FD7D60"/>
<path fill-rule="evenodd" clip-rule="evenodd" d="M11.2143 31.7438C11.0227 31.0813 9.82894 29.5008 9.45208 29.1699C8.89702 28.6825 8.49683 28.1509 7.6597 27.6778C7.36815 27.513 7.16851 27.4972 7.07801 27.2259C7.55012 26.9642 9.19346 28.4924 9.43775 28.7411C10.3714 29.6918 10.4468 30.0094 11.0022 30.7236L11.2903 31.0069L11.2282 29.1724L11.1753 29.0477C10.7507 27.7507 11.1534 27.9776 10.0429 25.7437C9.69332 25.0406 8.66788 23.5599 8.09063 23.0801C7.28816 22.4131 6.26691 21.703 4.90916 21.6365C2.20565 21.5042 -0.272192 25.182 3.28806 28.0477C6.14284 30.3455 9.83241 30.941 11.2143 31.7438V31.7438Z" fill="#68AB95"/>
<path fill-rule="evenodd" clip-rule="evenodd" d="M11.5833 30.3251L11.5663 31.1202C11.7841 30.9644 12.8617 29.4483 13.3599 28.9932C14.4021 28.0411 15.2324 26.9991 16.54 26.2141C16.8346 26.0373 16.7351 26.0034 16.9714 26.1685C16.8826 26.3917 15.7845 27.1336 15.5196 27.3344C14.401 28.1821 12.2159 30.495 11.6355 31.6551C12.8966 31.566 17.1797 29.578 18.2876 28.8542C19.1534 28.2886 20.2534 27.546 20.8684 26.729C22.9243 23.9981 21.3045 21.6219 17.912 22.5387C17.3361 22.6943 16.7625 22.9086 16.2766 23.213C14.1974 24.5155 12.9821 26.1978 12.1715 28.5173L11.6165 30.2694C11.6102 30.2816 11.5957 30.3073 11.5833 30.325V30.3251Z" fill="#68AB95"/>
<path fill-rule="evenodd" clip-rule="evenodd" d="M10.4719 16.1379C10.7236 16.9205 11.1441 21.7346 11.1376 22.4349C11.1318 23.0623 11.2321 23.3538 11.2286 24.0289L11.2282 29.1724L11.2903 31.0069L11.0022 30.7235C10.4468 30.0094 10.3714 29.6917 9.43774 28.7411C9.19346 28.4923 7.55013 26.9642 7.078 27.2259C7.1685 27.4971 7.36816 27.5129 7.65969 27.6777C8.49682 28.1508 8.89702 28.6825 9.45207 29.1699C9.82892 29.5008 11.0227 31.0812 11.2143 31.7437C11.2889 32.9862 11.1589 33.0228 11.1362 33.7803C11.1145 34.5029 11.1391 35.2718 11.1391 35.9999H11.4058L11.4946 33.7831C11.4937 33.3985 11.5587 31.8618 11.6355 31.6551C12.2159 30.495 14.401 28.1821 15.5196 27.3344C15.7845 27.1337 16.8826 26.3917 16.9714 26.1686C16.7351 26.0035 16.8346 26.0373 16.54 26.2142C15.2324 26.9992 14.4021 28.0411 13.3599 28.9932C12.8617 29.4483 11.7841 30.9645 11.5662 31.1202L11.5833 30.3251L11.5836 24.7389C11.5846 23.0608 11.1641 17.2736 10.7666 16.0492L10.6057 15.9243C10.4659 16.0774 10.5465 15.757 10.4718 16.1379L10.4719 16.1379Z" fill="#3D4759"/>
<path fill-rule="evenodd" clip-rule="evenodd" d="M15.2284 2.39408C17.3666 2.39408 17.1054 0 15.7618 0H15.1395C13.6256 0 13.7236 2.39408 15.2284 2.39408H15.2284Z" fill="#FDC978"/>
<path fill-rule="evenodd" clip-rule="evenodd" d="M1.27144 5.40892C1.60532 5.40892 1.94849 5.21479 2.12413 5.01801C3.29327 3.70812 1.47189 2.12506 0.357811 3.25622C-0.0085759 3.62821 -0.0981831 4.13671 0.110255 4.61216C0.277879 4.99451 0.7453 5.40892 1.27146 5.40892H1.27144Z" fill="#FDC978"/>
<path fill-rule="evenodd" clip-rule="evenodd" d="M6.42752 2.66014C6.42752 4.29494 8.7588 4.06892 8.95737 2.79398C9.21312 1.15179 6.42752 1.07621 6.42752 2.66014Z" fill="#FDC978"/>
</g>
<defs>
<clipPath id="clip0_2003_78">
<rect width="21.7778" height="36" fill="white"/>
</clipPath>
</defs>
</svg>
