<svg width="24" height="24" viewBox="0 0 24 24" fill="none" xmlns="http://www.w3.org/2000/svg">
<path d="M23.5611 21.4452L18.9159 16.7981C22.3916 12.1533 21.4439 5.57034 16.7991 2.09462C12.1544 -1.3811 5.57138 -0.433388 2.09565 4.21139C-1.38007 8.85616 -0.43235 15.4392 4.21242 18.9149C7.94349 21.7069 13.068 21.7069 16.7991 18.9149L21.4463 23.562C22.0302 24.146 22.9771 24.146 23.561 23.562C24.145 22.978 24.145 22.0312 23.561 21.4472L23.5611 21.4452ZM10.5445 18.0179C6.41646 18.0179 3.07005 14.6715 3.07005 10.5435C3.07005 6.41542 6.41646 3.06901 10.5445 3.06901C14.6726 3.06901 18.019 6.41542 18.019 10.5435C18.0146 14.6697 14.6707 18.0136 10.5445 18.0179Z" fill="#949494"/>
</svg>
