<svg width="35" height="35" viewBox="0 0 35 35" fill="none" xmlns="http://www.w3.org/2000/svg">
<circle cx="17.5" cy="17.4999" r="17.5" fill="#416794"/>
<g clip-path="url(#clip0_2008_40)">
<path d="M9.17276 14.5132C9.02139 14.1309 8.82798 13.7324 9.28629 13.5169C10.2155 13.5047 11.1447 13.4925 12.0782 13.4803C12.4818 13.4925 12.6668 13.7812 12.8812 14.1838C13.5077 15.3509 14.1594 16.514 14.9457 17.5836C15.2022 17.9333 15.6353 18.0675 15.9758 17.5104C16.0137 16.758 16.0515 16.0057 16.0894 15.2533C15.9632 14.379 15.6479 13.8625 15.0971 13.8097C14.7817 13.5128 15.0088 13.2688 15.7152 13.1387C16.8378 12.9069 17.8175 13.0126 18.6794 13.1183C19.4068 13.1631 19.5119 13.6389 19.4993 14.1838C19.4741 15.1801 19.4531 16.1805 19.4531 17.1769C19.6675 18.1895 20.2393 17.7828 20.6178 17.3436C21.2947 16.4123 21.8833 15.5055 22.3753 14.4847C22.884 13.4355 23.0228 13.5128 23.3802 13.5087C24.2337 13.5047 25.1756 13.464 25.8567 13.4884C27.2779 13.4071 27.1139 14.0171 26.7145 14.6637C26.0249 15.7901 25.1377 16.8068 24.3473 17.8804C23.8679 18.5108 23.8763 18.9052 24.3851 19.2468C25.1377 20.048 25.9534 20.7962 26.6388 21.6502C27.383 22.5815 26.8364 22.8377 26.1426 22.9069C25.3143 22.9069 24.486 22.9069 23.6577 22.9069C22.9513 22.9191 22.3122 22.7483 21.8623 22.0203C20.8238 20.6905 20.0501 20.3245 19.739 21.0728C19.6044 21.4022 19.4909 21.8455 19.4951 22.2765C19.4993 22.8784 19.1251 22.9272 18.6163 22.9435C18.0697 22.9435 17.5021 23.0736 16.9723 22.9435C15.0971 22.4839 13.2975 21.638 11.5442 18.7304C10.7537 17.4738 9.96323 16.0992 9.17276 14.5132Z" fill="white"/>
</g>
<defs>
<clipPath id="clip0_2008_40">
<rect width="18" height="10" fill="white" transform="translate(9 12.9999)"/>
</clipPath>
</defs>
</svg>
