<svg width="189" height="34" viewBox="0 0 189 34" fill="none" xmlns="http://www.w3.org/2000/svg">
<path d="M11.33 0.499998C15.86 0.499998 18.47 3.68 18.47 8.84C18.47 16.76 14.33 23 7.64 23C3.5 23 0.5 20.27 0.5 14.66C0.5 6.53 4.76 0.499998 11.33 0.499998ZM4.94 11.75C4.73 13.19 4.61 14.78 4.61 15.86C4.61 20 6.14 21.35 8 21.35C10.61 21.35 12.98 18.23 14 11.75C14.24 10.31 14.33 8.72 14.33 7.64C14.33 3.53 12.83 2.15 10.94 2.15C8.6 2.15 5.99 4.88 4.94 11.75ZM42.1707 20.39C43.3707 20.39 44.5407 19.4 45.3207 17.78C45.7107 17.78 45.9807 18.02 45.8907 18.56C45.6207 20.09 43.4007 23 40.6107 23C38.3607 23 36.9807 21.5 36.9807 19.25C36.9807 18.47 37.2507 16.88 37.4307 15.83L38.0007 12.53C38.2407 11.12 37.9407 10.64 37.2807 10.64C35.7507 10.64 33.4407 15.02 32.5107 20.15C32.1807 22.04 32.4807 22.73 32.4807 22.73C32.4807 22.73 32.0307 23 30.9207 23C28.6107 23 28.3407 22.13 28.7007 20.03L30.0207 12.53C30.2607 11.24 30.0507 10.64 29.3307 10.64C27.8607 10.64 25.5207 14.6 24.5307 20.15C24.2007 22.04 24.5007 22.73 24.5007 22.73C24.5007 22.73 24.0507 23 22.9407 23C20.6307 23 20.3607 22.13 20.7207 20.03L22.3107 10.85C22.6407 8.96 22.3407 8.27 22.3407 8.27C22.3407 8.27 22.7907 8 23.9007 8C26.2107 8 26.4807 8.87 26.1207 10.97L26.0007 11.69C26.9907 10.04 28.7607 8 30.8307 8C32.7207 8 33.9507 9.17 33.9507 11.12C33.9507 11.33 33.9207 11.54 33.9207 11.78C34.8807 10.07 36.7107 8 38.8407 8C40.7307 8 41.9307 9.23 41.9307 11.09C41.9307 11.75 41.8107 12.62 41.6607 13.52L40.9407 17.75C40.6407 19.52 41.0907 20.39 42.1707 20.39ZM50.2613 10.97L49.5413 15.14H50.7413C51.5813 15.14 52.1813 14.15 52.5413 13.43L53.7113 11.03C54.9113 8.6 55.8713 8 57.1613 8C58.3913 8 59.1113 8.81 59.1113 10.04C59.1113 11.36 58.0613 12.11 58.0613 12.11C58.0613 12.11 57.7913 11.03 56.6213 11.03C55.7213 11.03 55.0613 11.69 54.5213 12.83L54.0113 13.91C53.7713 14.45 53.4113 14.93 52.9613 15.26C54.0713 15.53 54.6713 16.25 55.0013 17.21L55.3313 18.26C55.7513 19.64 56.3513 20.39 57.5813 20.39C58.8713 20.39 60.1313 19.16 60.7913 17.78C61.1813 17.78 61.4513 18.02 61.3613 18.56C61.0913 20.15 58.8113 23 55.9913 23C53.9813 23 52.5413 21.86 51.8213 19.49L51.3413 17.9C51.1013 17.06 50.7113 16.61 49.9013 16.61H49.2713L48.6713 20.15C48.3413 22.04 48.6413 22.73 48.6413 22.73C48.6413 22.73 48.1913 23 47.0813 23C44.7713 23 44.5013 22.13 44.8613 20.03L46.4513 10.85C46.7813 8.96 46.4813 8.27 46.4813 8.27C46.4813 8.27 46.9313 8 48.0413 8C50.3513 8 50.6213 8.87 50.2613 10.97ZM65.7601 10.97L65.6701 11.51C66.9301 9.23 68.6101 8 70.5001 8C73.2901 8 74.8201 9.98 74.8201 13.1C74.8201 14 74.7301 14.84 74.5801 15.62C76.8901 15.35 78.3001 13.28 78.3001 13.28C78.6901 13.28 78.9001 13.58 78.8401 14.03C78.6601 15.08 76.7101 16.76 74.2501 17C73.0801 20.75 70.3201 23 67.4101 23C65.9701 23 64.7701 22.43 63.9301 21.53L62.3401 30.65C62.0101 32.54 62.3101 33.23 62.3101 33.23C62.3101 33.23 61.8601 33.5 60.7501 33.5C58.4401 33.5 58.1701 32.63 58.5301 30.53L61.9501 10.85C62.2801 8.96 61.9801 8.27 61.9801 8.27C61.9801 8.27 62.4301 8 63.5401 8C65.8501 8 66.1201 8.84 65.7601 10.97ZM69.4201 13.82C69.4201 12.83 69.9601 11.99 70.9201 11.78C70.7401 10.76 70.2301 10.31 69.4501 10.31C68.5501 10.31 67.6801 11.06 66.6601 12.68C65.8201 14.03 64.9801 15.8 64.4401 18.53L64.2301 19.67C64.6201 20.3 65.3101 20.96 66.5101 20.96C68.1601 20.96 69.7801 19.04 70.5301 16.19C69.8101 15.62 69.4201 14.81 69.4201 13.82ZM82.4586 23C79.0386 23 77.2086 21.11 77.2086 18.17C77.2086 17.54 77.2986 16.73 77.4186 16.01L78.3486 10.85C78.6786 8.96 78.3786 8.27 78.3786 8.27C78.3786 8.27 78.8286 8 79.9386 8C82.2486 8 82.5186 8.87 82.1586 10.97L81.8886 12.5C82.6686 12.11 83.6286 11.87 84.8286 11.87C87.6186 11.87 89.5686 13.52 89.5686 16.13C89.5686 20.3 86.5986 23 82.4586 23ZM81.4986 14.66L81.0786 17.18C80.9586 17.9 80.8686 18.71 80.8686 19.52C80.8686 20.69 81.4686 21.5 82.6086 21.5C84.2886 21.5 85.7286 19.64 85.7286 16.01C85.7286 14.42 84.9186 13.67 83.6586 13.67C82.6386 13.67 81.8886 14.27 81.4986 14.66ZM91.3086 16.4L92.2686 10.85C92.5986 8.96 92.2986 8.27 92.2986 8.27C92.2986 8.27 92.7486 8 93.8586 8C96.1686 8 96.4386 8.87 96.0786 10.97L94.9086 17.75C94.6086 19.55 95.1186 20.39 96.1986 20.39C97.2186 20.39 98.5686 19.4 99.3486 17.78C99.7386 17.78 100.009 18.02 99.9186 18.56C99.6186 20.15 97.4586 23 94.5486 23C92.4786 23 91.0386 21.65 91.0386 19.25C91.0386 18.65 91.0986 17.6 91.3086 16.4ZM120.335 20.39C121.535 20.39 122.705 19.4 123.485 17.78C123.875 17.78 124.145 18.02 124.055 18.56C123.785 20.09 121.565 23 118.775 23C116.525 23 115.145 21.5 115.145 19.25C115.145 18.47 115.415 16.88 115.595 15.83L116.165 12.53C116.405 11.12 116.105 10.64 115.445 10.64C113.915 10.64 111.605 15.02 110.675 20.15C110.345 22.04 110.645 22.73 110.645 22.73C110.645 22.73 110.195 23 109.085 23C106.775 23 106.505 22.13 106.865 20.03L108.185 12.53C108.425 11.24 108.215 10.64 107.495 10.64C106.025 10.64 103.685 14.6 102.695 20.15C102.365 22.04 102.665 22.73 102.665 22.73C102.665 22.73 102.215 23 101.105 23C98.7948 23 98.5248 22.13 98.8848 20.03L100.475 10.85C100.805 8.96 100.505 8.27 100.505 8.27C100.505 8.27 100.955 8 102.065 8C104.375 8 104.645 8.87 104.285 10.97L104.165 11.69C105.155 10.04 106.925 8 108.995 8C110.885 8 112.115 9.17 112.115 11.12C112.115 11.33 112.085 11.54 112.085 11.78C113.045 10.07 114.875 8 117.005 8C118.895 8 120.095 9.23 120.095 11.09C120.095 11.75 119.975 12.62 119.825 13.52L119.105 17.75C118.805 19.52 119.255 20.39 120.335 20.39ZM131.185 8C134.695 8 136.705 10.31 136.705 13.73C136.705 14.39 136.645 15.02 136.555 15.62C138.805 15.29 140.185 13.28 140.185 13.28C140.575 13.28 140.785 13.58 140.725 14.03C140.545 15.08 138.655 16.7 136.255 17C135.235 20.57 132.475 23 128.395 23C125.215 23 122.875 20.99 122.875 17.27C122.875 11.84 126.055 8 131.185 8ZM131.305 13.82C131.305 12.8 131.845 11.99 132.835 11.78C132.685 10.28 131.995 9.47 130.885 9.47C129.385 9.47 127.825 11 126.985 15.47C126.835 16.25 126.715 17.81 126.715 18.56C126.715 20.45 127.435 21.5 128.695 21.5C130.315 21.5 131.665 19.79 132.445 16.19C131.695 15.62 131.305 14.81 131.305 13.82ZM140.013 10.85C140.343 8.96 140.043 8.27 140.043 8.27C140.043 8.27 140.493 8 141.603 8C143.913 8 144.213 8.87 143.823 10.97L143.073 14.9C142.743 16.7 143.223 17.39 144.033 17.39C144.753 17.39 145.533 16.73 146.403 15.41C147.153 14.27 148.083 12.5 148.413 10.37C148.653 8.87 148.383 8.27 148.383 8.27C148.383 8.27 148.833 8 149.943 8C152.253 8 152.523 8.87 152.163 10.97L150.993 17.75C150.693 19.55 151.203 20.39 152.283 20.39C153.303 20.39 154.653 19.4 155.433 17.78C155.823 17.78 156.093 18.02 156.003 18.56C155.703 20.15 153.543 23 150.633 23C148.563 23 147.123 21.65 147.123 19.25C147.123 18.68 147.183 17.66 147.363 16.52C146.403 18.26 144.753 20 142.503 20C140.493 20 139.263 18.59 139.263 16.52C139.263 15.41 139.383 14.39 140.013 10.85ZM160.388 10.97L159.668 15.14H160.868C161.708 15.14 162.308 14.15 162.668 13.43L163.838 11.03C165.038 8.6 165.998 8 167.288 8C168.518 8 169.238 8.81 169.238 10.04C169.238 11.36 168.188 12.11 168.188 12.11C168.188 12.11 167.918 11.03 166.748 11.03C165.848 11.03 165.188 11.69 164.648 12.83L164.138 13.91C163.898 14.45 163.538 14.93 163.088 15.26C164.198 15.53 164.798 16.25 165.128 17.21L165.458 18.26C165.878 19.64 166.478 20.39 167.708 20.39C168.998 20.39 170.258 19.16 170.918 17.78C171.308 17.78 171.578 18.02 171.488 18.56C171.218 20.15 168.938 23 166.118 23C164.108 23 162.668 21.86 161.948 19.49L161.468 17.9C161.228 17.06 160.838 16.61 160.028 16.61H159.398L158.798 20.15C158.468 22.04 158.768 22.73 158.768 22.73C158.768 22.73 158.318 23 157.208 23C154.898 23 154.628 22.13 154.988 20.03L156.578 10.85C156.908 8.96 156.608 8.27 156.608 8.27C156.608 8.27 157.058 8 158.168 8C160.478 8 160.748 8.87 160.388 10.97ZM184.467 10.46L183.177 17.75C182.847 19.55 183.387 20.39 184.467 20.39C185.487 20.39 186.837 19.4 187.617 17.78C188.007 17.78 188.277 18.02 188.187 18.56C187.887 20.15 185.727 23 182.817 23C180.837 23 179.457 21.77 179.307 19.61C178.077 21.83 176.427 23 174.717 23C172.257 23 170.307 21.35 170.307 17.84C170.307 11.15 174.207 8 177.717 8C179.217 8 180.267 8.6 180.957 9.47C181.437 8.39 182.187 8 183.657 8C184.677 8 185.157 8.3 185.157 8.3C185.157 8.3 184.767 8.84 184.467 10.46ZM175.917 20.39C178.047 20.39 179.637 15.89 180.207 12.89L180.477 11.48C180.207 10.88 179.637 10.04 178.497 10.04C176.457 10.04 174.147 13.07 174.147 17.9C174.147 19.58 174.807 20.39 175.917 20.39Z" fill="url(#paint0_linear_15_207)"/>
<defs>
<linearGradient id="paint0_linear_15_207" x1="-1" y1="-5.45622e-07" x2="188" y2="23" gradientUnits="userSpaceOnUse">
<stop stop-color="#F64F59"/>
<stop offset="0.51" stop-color="#C471ED"/>
<stop offset="1" stop-color="#12C2E9"/>
</linearGradient>
</defs>
</svg>
